<svg xmlns="http://www.w3.org/2000/svg" xmlns:xlink="http://www.w3.org/1999/xlink" width="2000" height="2243.53" viewBox="0 0 2000 2243.53"><defs><linearGradient id="a" x1="407.64" y1="1403.87" x2="407.64" y2="420.13" gradientTransform="matrix(1, 0, 0, -1, 0, 2257.43)" gradientUnits="userSpaceOnUse"><stop offset="0" stop-color="#f7ec12"/><stop offset="0.13" stop-color="#f7e213"/><stop offset="0.36" stop-color="#f5c616"/><stop offset="0.65" stop-color="#f49a1b"/><stop offset="1" stop-color="#f15c22"/><stop offset="1" stop-color="#f15c22"/></linearGradient><linearGradient id="b" x1="794.71" y1="831.24" x2="794.71" y2="13.9" xlink:href="#a"/><linearGradient id="c" x1="1251.35" y1="1070.08" x2="1251.35" y2="156.82" xlink:href="#a"/><linearGradient id="d" x1="512.98" y1="2076.34" x2="512.98" y2="1365.7" xlink:href="#a"/><linearGradient id="e" x1="1731.99" y1="1835.55" x2="1731.99" y2="755.87" xlink:href="#a"/><linearGradient id="f" x1="1138.66" y1="2257.43" x2="1138.66" y2="1145.46" xlink:href="#a"/><linearGradient id="g" x1="1357.18" y1="1405.29" x2="1357.18" y2="1145.89" xlink:href="#a"/><linearGradient id="h" x1="636.99" y1="1210.67" x2="719.35" y2="1437.18" xlink:href="#a"/></defs><title>SVG export Illustrator</title><path d="M465.46,961.23h1l16.65,5.88L499.76,973l16.65,6.85,16.66,5.87,16.66,5.88,16.66,5.87L583,1004.3l16.67,5.87,16.65,5.88,16.66,5.87,16.66,6.85,16.66,5.88,16.65,5.87,16.67,5.87,16.65,6.85,16.67,5.88,16.65,5.87,15.68,5.87,16.65,6.86,16.67,5.87,16.65,5.87V853.56H442.91l-15.67,7.83L388.05,882l-39.2,20.55-38.22,19.58-39.2,20.55-38.21,20.56L194,983.75l-39.19,19.57-38.22,20.56-39.2,20.55L38.21,1064l-35.27,18.6L0,1661.11l38.21,27.41,39.2,27.41,39.2,27.4,38.22,26.43L194,1797.17l39.2,27.41,17.63,12.72,20.58-27.4,39.2-50.9,3.92-4.9-3.92-2-39.2-27.4-38.21-27.41L194,1669.92l-39.19-27.41-38.22-27.41-10.78-7.83,2-467.89,8.82-3.91,38.22-19.58L194,1096.31l39.2-18.59,38.21-19.58,39.2-19.58,38.22-18.6,39.2-19.57,39.19-19.58Z" style="fill:url(#a)"/><path d="M1135.72,2065.38l-33.32,13.7-36.25,13.7-36.26,14.69-36.26,14.68L976,2129l-18.62-9.79-36.26-17.62L884.86,2083l-36.26-18.6-36.25-17.62-35.28-18.6-36.26-18.6L704.56,1992l-36.26-18.6L632,1954.77l-36.26-17.62-36.25-18.6L523.27,1900l-3.92-2v-471.8H415.48V1962.6l35.28,18.6L487,1998.81l36.25,18.6,36.26,18.6,36.25,17.62,36.26,18.6,36.26,18.6,36.26,17.62L740.81,2127l36.26,17.62,35.28,18.6,36.25,18.6,36.26,17.62,36.25,18.6,36.26,18.6,13.72,6.85,22.54-8.81,36.26-14.68,36.26-14.69,36.25-14.68,36.26-13.7,35.27-14.69-35.27-90.05Z" style="fill:url(#b)"/><path d="M1781.48,1408.57l2,223.18-10.78,6.85-60.76,44.05-61.73,43.06-61.73,44-60.76,44-61.74,44-61.72,43.07-60.76,44-37.24,26.43-24.5-19.58-61.73-47-60.75-47-61.74-47-61.74-47-9.79-7.83V1517.22l9.79-10.77,61.74-64.6,61.74-63.63,60.75-64.6,61.73-63.63,59.78-62.64H606.57l60.75,64.6,61.73,63.63,61.74,64.6,60.75,63.63,61.74,64.6,7.83,8.81V1807l53.9,41.11,60.75,47,61.74,47,61.74,47,60.75,48,61.73,47,22.54,16.65,39.2-27.41,60.76-44,61.72-44.05,61.74-43.07,60.76-44,61.73-44,61.73-43.06,60.76-44.05,61.74-44,51.93-36.22,9.8-274.08-61.73-2Z" style="fill:url(#c)"/><path d="M99,891.73h6.86l2-296.59L148,570.67l49-30.34L245,511l49-29.37,49-30.34,48-29.37,49-30.34,49-29.36,48-29.37,49-30.34h1l48,26.42,48,27.41,49,28.39,49,27.41,48,27.4,49,28.39,49,27.41,47,26.43,2-2.94,48-88.1-48-27.4L927,374.9l-49-27.41-49-27.41-48-27.4-49-28.39-49-27.41-48-27.41-49-27.4-1-1-48,29.36-48,29.37-49,29.36-49,30.35-48,29.36-49,30.35L245,388.6,197,418l-49,30.34L99,477.68,51,508l-47,28.39L2,890.75l49,1Z" style="fill:url(#d)"/><path d="M1999,619.61,1974.52,600l-25.47-20.56-25.48-20.56-25.48-19.57-25.48-20.56-25.48-20.55-25.47-20.56-25.48-20.56-25.48-20.55-18.62-14.69-6.86,7.84L1719.74,462l-25.47,31.32-7.84,9.79,7.84,5.87,25.47,21.54,25.48,21.53,25.48,21.54,25.48,20.55,25.48,21.54,25.47,21.53,25.48,21.54,12.74,10.76,2,476.71-14.7,9.78-25.48,15.67-25.47,16.64L1796.18,1204l-25.48,16.64-25.48,15.66-25.48,16.64-25.47,15.66-25.48,16.64-25.48,15.66-25.48,16.64-25.48,15.67-25.47,16.64-25.48,15.66-25.48,16.64-25.47,15.66L1464,1414.44l26.46,40.13,25.47,40.14,3.92,6.85,21.56-12.73,25.48-15.66,25.47-15.66,25.48-15.66,25.48-15.66,25.48-16.64,25.48-15.67,25.47-15.66,25.48-15.66,25.48-15.66,25.48-15.66,25.48-16.64,25.47-15.66,25.48-15.67,25.48-15.66,25.48-15.66,25.48-15.66,25.47-15.66L2000,1204Z" style="fill:url(#e)"/><path d="M1167.07,904.46V1112l7.84-3.92,34.3-13.7,33.32-13.71,34.29-13.7,34.3-13.71,33.32-13.7,34.3-13.7,33.31-13.71,34.29-13.7,34.3-13.71L1514,971l34.3-13.7V331.83l-39.2-22.51-39.19-23.5-39.2-22.51-38.22-23.49-39.2-22.51-39.19-22.52-39.2-23.49-39.19-22.51-38.22-22.52-39.19-23.49-39.2-22.51-39.2-22.52-39.2-23.49-39.19-22.51L981.87,0,963.25,9.79,924.06,31.32l-39.2,21.54-39.2,20.55L806.47,95l-39.2,21.53L729.05,137l38.22,22.51,39.2,22.52L832,196.75l13.71-7.83,39.2-20.56,39.2-20.55,39.19-19.58,15.68-8.81,22.54,13.7,39.19,22.52,39.2,22.51,39.2,23.49,39.2,22.52,39.19,22.51,38.22,23.49,39.19,22.52,39.2,22.51,39.19,23.49,39.2,22.52,38.22,22.51,12.74,7.83v461H1167.07" style="fill:url(#f)"/><path d="M1167.07,1112l381.19-154.66L1166.1,852.58" style="fill:url(#g)"/><path d="M815.28,1112V855.52L466.44,960.25,815.28,1110" style="fill:url(#h)"/></svg>